<svg aria-roledescription="er" role="graphics-document document" viewBox="-33.391666412353516 0 329.8999938964844 1356" style="max-width: 329.8999938964844px;" xmlns="http://www.w3.org/2000/svg" width="100%" id="mermaid-svg-845054"><style>#mermaid-svg-845054{font-family:"trebuchet ms",verdana,arial,sans-serif;font-size:16px;fill:#333;}#mermaid-svg-845054 .error-icon{fill:#552222;}#mermaid-svg-845054 .error-text{fill:#552222;stroke:#552222;}#mermaid-svg-845054 .edge-thickness-normal{stroke-width:2px;}#mermaid-svg-845054 .edge-thickness-thick{stroke-width:3.5px;}#mermaid-svg-845054 .edge-pattern-solid{stroke-dasharray:0;}#mermaid-svg-845054 .edge-pattern-dashed{stroke-dasharray:3;}#mermaid-svg-845054 .edge-pattern-dotted{stroke-dasharray:2;}#mermaid-svg-845054 .marker{fill:#333333;stroke:#333333;}#mermaid-svg-845054 .marker.cross{stroke:#333333;}#mermaid-svg-845054 svg{font-family:"trebuchet ms",verdana,arial,sans-serif;font-size:16px;}#mermaid-svg-845054 .entityBox{fill:#ECECFF;stroke:#9370DB;}#mermaid-svg-845054 .attributeBoxOdd{fill:#ffffff;stroke:#9370DB;}#mermaid-svg-845054 .attributeBoxEven{fill:#f2f2f2;stroke:#9370DB;}#mermaid-svg-845054 .relationshipLabelBox{fill:hsl(80, 100%, 96.2745098039%);opacity:0.7;background-color:hsl(80, 100%, 96.2745098039%);}#mermaid-svg-845054 .relationshipLabelBox rect{opacity:0.5;}#mermaid-svg-845054 .relationshipLine{stroke:#333333;}#mermaid-svg-845054 .entityTitleText{text-anchor:middle;font-size:18px;fill:#333;}#mermaid-svg-845054 #MD_PARENT_START{fill:#f5f5f5!important;stroke:#333333!important;stroke-width:1;}#mermaid-svg-845054 #MD_PARENT_END{fill:#f5f5f5!important;stroke:#333333!important;stroke-width:1;}#mermaid-svg-845054 :root{--mermaid-font-family:"trebuchet ms",verdana,arial,sans-serif;}</style><g></g><defs><marker orient="auto" markerHeight="240" markerWidth="190" refY="7" refX="0" id="MD_PARENT_START"><path d="M 18,7 L9,13 L1,7 L9,1 Z"></path></marker></defs><defs><marker orient="auto" markerHeight="28" markerWidth="20" refY="7" refX="19" id="MD_PARENT_END"><path d="M 18,7 L9,13 L1,7 L9,1 Z"></path></marker></defs><defs><marker orient="auto" markerHeight="18" markerWidth="18" refY="9" refX="0" id="ONLY_ONE_START"><path d="M9,0 L9,18 M15,0 L15,18" fill="none" stroke="gray"></path></marker></defs><defs><marker orient="auto" markerHeight="18" markerWidth="18" refY="9" refX="18" id="ONLY_ONE_END"><path d="M3,0 L3,18 M9,0 L9,18" fill="none" stroke="gray"></path></marker></defs><defs><marker orient="auto" markerHeight="18" markerWidth="30" refY="9" refX="0" id="ZERO_OR_ONE_START"><circle r="6" cy="9" cx="21" fill="white" stroke="gray"></circle><path d="M9,0 L9,18" fill="none" stroke="gray"></path></marker></defs><defs><marker orient="auto" markerHeight="18" markerWidth="30" refY="9" refX="30" id="ZERO_OR_ONE_END"><circle r="6" cy="9" cx="9" fill="white" stroke="gray"></circle><path d="M21,0 L21,18" fill="none" stroke="gray"></path></marker></defs><defs><marker orient="auto" markerHeight="36" markerWidth="45" refY="18" refX="18" id="ONE_OR_MORE_START"><path d="M0,18 Q 18,0 36,18 Q 18,36 0,18 M42,9 L42,27" fill="none" stroke="gray"></path></marker></defs><defs><marker orient="auto" markerHeight="36" markerWidth="45" refY="18" refX="27" id="ONE_OR_MORE_END"><path d="M3,9 L3,27 M9,18 Q27,0 45,18 Q27,36 9,18" fill="none" stroke="gray"></path></marker></defs><defs><marker orient="auto" markerHeight="36" markerWidth="57" refY="18" refX="18" id="ZERO_OR_MORE_START"><circle r="6" cy="18" cx="48" fill="white" stroke="gray"></circle><path d="M0,18 Q18,0 36,18 Q18,36 0,18" fill="none" stroke="gray"></path></marker></defs><defs><marker orient="auto" markerHeight="36" markerWidth="57" refY="18" refX="39" id="ZERO_OR_MORE_END"><circle r="6" cy="18" cx="9" fill="white" stroke="gray"></circle><path d="M21,18 Q39,0 57,18 Q39,36 21,18" fill="none" stroke="gray"></path></marker></defs><path marker-start="url(#ONLY_ONE_START)" marker-end="url(#ZERO_OR_ONE_END)" style="stroke: gray; fill: none;" d="M162.277,251L166.963,259.333C171.649,267.667,181.02,284.333,185.706,301C190.392,317.667,190.392,334.333,190.392,342.667L190.392,351" class="er relationshipLine"></path><path marker-start="url(#ONLY_ONE_START)" marker-end="url(#ZERO_OR_MORE_END)" style="stroke: gray; fill: none;" d="M32.389,251L27.704,259.333C23.018,267.667,13.646,284.333,8.961,312.583C4.275,340.833,4.275,380.667,4.275,420.5C4.275,460.333,4.275,500.167,4.275,561.083C4.275,622,4.275,704,4.275,786C4.275,868,4.275,950,8.656,999.333C13.038,1048.667,21.8,1065.333,26.181,1073.667L30.563,1082" class="er relationshipLine"></path><path marker-start="url(#ONLY_ONE_START)" marker-end="url(#ZERO_OR_MORE_END)" style="stroke: gray; fill: none;" d="M190.392,490L190.392,498.333C190.392,506.667,190.392,523.333,190.392,540C190.392,556.667,190.392,573.333,190.392,581.667L190.392,590" class="er relationshipLine"></path><path marker-start="url(#ONLY_ONE_START)" marker-end="url(#ZERO_OR_MORE_END)" style="stroke: gray; fill: none;" d="M190.392,982L190.392,990.333C190.392,998.667,190.392,1015.333,186.01,1032C181.629,1048.667,172.867,1065.333,168.485,1073.667L164.104,1082" class="er relationshipLine"></path><g transform="translate(20,20 )" id="entity-USERS-1e82e395-936c-57a7-8ba9-b08f03574b93"><rect height="231" width="154.6666669845581" y="0" x="0" class="er entityBox"></rect><text transform="translate(77.33333349227905,12)" style="dominant-baseline: middle; text-anchor: middle; font-size: 12px;" y="0" x="0" id="text-entity-USERS-1e82e395-936c-57a7-8ba9-b08f03574b93" class="er entityLabel">USERS</text><rect height="23" width="49.099998474121094" y="24" x="0" class="er attributeBoxOdd"></rect><text transform="translate(5,35.5)" style="dominant-baseline: middle; font-size: 10.2px;" y="0" x="0" id="text-entity-USERS-1e82e395-936c-57a7-8ba9-b08f03574b93-attr-1-type" class="er entityLabel">int</text><rect height="23" width="81.4000015258789" y="24" x="49.099998474121094" class="er attributeBoxOdd"></rect><text transform="translate(54.099998474121094,35.5)" style="dominant-baseline: middle; font-size: 10.2px;" y="0" x="0" id="text-entity-USERS-1e82e395-936c-57a7-8ba9-b08f03574b93-attr-1-name" class="er entityLabel">id</text><rect height="23" width="24.166666984558105" y="24" x="130.5" class="er attributeBoxOdd"></rect><text transform="translate(135.5,35.5)" style="dominant-baseline: middle; font-size: 10.2px;" y="0" x="0" id="text-entity-USERS-1e82e395-936c-57a7-8ba9-b08f03574b93-attr-1-key" class="er entityLabel">PK</text><rect height="23" width="49.099998474121094" y="47" x="0" class="er attributeBoxEven"></rect><text transform="translate(5,58.5)" style="dominant-baseline: middle; font-size: 10.2px;" y="0" x="0" id="text-entity-USERS-1e82e395-936c-57a7-8ba9-b08f03574b93-attr-2-type" class="er entityLabel">string</text><rect height="23" width="81.4000015258789" y="47" x="49.099998474121094" class="er attributeBoxEven"></rect><text transform="translate(54.099998474121094,58.5)" style="dominant-baseline: middle; font-size: 10.2px;" y="0" x="0" id="text-entity-USERS-1e82e395-936c-57a7-8ba9-b08f03574b93-attr-2-name" class="er entityLabel">email</text><rect height="23" width="24.166666984558105" y="47" x="130.5" class="er attributeBoxEven"></rect><text transform="translate(135.5,58.5)" style="dominant-baseline: middle; font-size: 10.2px;" y="0" x="0" id="text-entity-USERS-1e82e395-936c-57a7-8ba9-b08f03574b93-attr-2-key" class="er entityLabel">UK</text><rect height="23" width="49.099998474121094" y="70" x="0" class="er attributeBoxOdd"></rect><text transform="translate(5,81.5)" style="dominant-baseline: middle; font-size: 10.2px;" y="0" x="0" id="text-entity-USERS-1e82e395-936c-57a7-8ba9-b08f03574b93-attr-3-type" class="er entityLabel">string</text><rect height="23" width="81.4000015258789" y="70" x="49.099998474121094" class="er attributeBoxOdd"></rect><text transform="translate(54.099998474121094,81.5)" style="dominant-baseline: middle; font-size: 10.2px;" y="0" x="0" id="text-entity-USERS-1e82e395-936c-57a7-8ba9-b08f03574b93-attr-3-name" class="er entityLabel">password_hash</text><rect height="23" width="24.166666984558105" y="70" x="130.5" class="er attributeBoxOdd"></rect><text transform="translate(135.5,81.5)" style="dominant-baseline: middle; font-size: 10.2px;" y="0" x="0" id="text-entity-USERS-1e82e395-936c-57a7-8ba9-b08f03574b93-attr-3-key" class="er entityLabel"></text><rect height="23" width="49.099998474121094" y="93" x="0" class="er attributeBoxEven"></rect><text transform="translate(5,104.5)" style="dominant-baseline: middle; font-size: 10.2px;" y="0" x="0" id="text-entity-USERS-1e82e395-936c-57a7-8ba9-b08f03574b93-attr-4-type" class="er entityLabel">string</text><rect height="23" width="81.4000015258789" y="93" x="49.099998474121094" class="er attributeBoxEven"></rect><text transform="translate(54.099998474121094,104.5)" style="dominant-baseline: middle; font-size: 10.2px;" y="0" x="0" id="text-entity-USERS-1e82e395-936c-57a7-8ba9-b08f03574b93-attr-4-name" class="er entityLabel">first_name</text><rect height="23" width="24.166666984558105" y="93" x="130.5" class="er attributeBoxEven"></rect><text transform="translate(135.5,104.5)" style="dominant-baseline: middle; font-size: 10.2px;" y="0" x="0" id="text-entity-USERS-1e82e395-936c-57a7-8ba9-b08f03574b93-attr-4-key" class="er entityLabel"></text><rect height="23" width="49.099998474121094" y="116" x="0" class="er attributeBoxOdd"></rect><text transform="translate(5,127.5)" style="dominant-baseline: middle; font-size: 10.2px;" y="0" x="0" id="text-entity-USERS-1e82e395-936c-57a7-8ba9-b08f03574b93-attr-5-type" class="er entityLabel">string</text><rect height="23" width="81.4000015258789" y="116" x="49.099998474121094" class="er attributeBoxOdd"></rect><text transform="translate(54.099998474121094,127.5)" style="dominant-baseline: middle; font-size: 10.2px;" y="0" x="0" id="text-entity-USERS-1e82e395-936c-57a7-8ba9-b08f03574b93-attr-5-name" class="er entityLabel">last_name</text><rect height="23" width="24.166666984558105" y="116" x="130.5" class="er attributeBoxOdd"></rect><text transform="translate(135.5,127.5)" style="dominant-baseline: middle; font-size: 10.2px;" y="0" x="0" id="text-entity-USERS-1e82e395-936c-57a7-8ba9-b08f03574b93-attr-5-key" class="er entityLabel"></text><rect height="23" width="49.099998474121094" y="139" x="0" class="er attributeBoxEven"></rect><text transform="translate(5,150.5)" style="dominant-baseline: middle; font-size: 10.2px;" y="0" x="0" id="text-entity-USERS-1e82e395-936c-57a7-8ba9-b08f03574b93-attr-6-type" class="er entityLabel">string</text><rect height="23" width="81.4000015258789" y="139" x="49.099998474121094" class="er attributeBoxEven"></rect><text transform="translate(54.099998474121094,150.5)" style="dominant-baseline: middle; font-size: 10.2px;" y="0" x="0" id="text-entity-USERS-1e82e395-936c-57a7-8ba9-b08f03574b93-attr-6-name" class="er entityLabel">phone</text><rect height="23" width="24.166666984558105" y="139" x="130.5" class="er attributeBoxEven"></rect><text transform="translate(135.5,150.5)" style="dominant-baseline: middle; font-size: 10.2px;" y="0" x="0" id="text-entity-USERS-1e82e395-936c-57a7-8ba9-b08f03574b93-attr-6-key" class="er entityLabel"></text><rect height="23" width="49.099998474121094" y="162" x="0" class="er attributeBoxOdd"></rect><text transform="translate(5,173.5)" style="dominant-baseline: middle; font-size: 10.2px;" y="0" x="0" id="text-entity-USERS-1e82e395-936c-57a7-8ba9-b08f03574b93-attr-7-type" class="er entityLabel">boolean</text><rect height="23" width="81.4000015258789" y="162" x="49.099998474121094" class="er attributeBoxOdd"></rect><text transform="translate(54.099998474121094,173.5)" style="dominant-baseline: middle; font-size: 10.2px;" y="0" x="0" id="text-entity-USERS-1e82e395-936c-57a7-8ba9-b08f03574b93-attr-7-name" class="er entityLabel">is_active</text><rect height="23" width="24.166666984558105" y="162" x="130.5" class="er attributeBoxOdd"></rect><text transform="translate(135.5,173.5)" style="dominant-baseline: middle; font-size: 10.2px;" y="0" x="0" id="text-entity-USERS-1e82e395-936c-57a7-8ba9-b08f03574b93-attr-7-key" class="er entityLabel"></text><rect height="23" width="49.099998474121094" y="185" x="0" class="er attributeBoxEven"></rect><text transform="translate(5,196.5)" style="dominant-baseline: middle; font-size: 10.2px;" y="0" x="0" id="text-entity-USERS-1e82e395-936c-57a7-8ba9-b08f03574b93-attr-8-type" class="er entityLabel">datetime</text><rect height="23" width="81.4000015258789" y="185" x="49.099998474121094" class="er attributeBoxEven"></rect><text transform="translate(54.099998474121094,196.5)" style="dominant-baseline: middle; font-size: 10.2px;" y="0" x="0" id="text-entity-USERS-1e82e395-936c-57a7-8ba9-b08f03574b93-attr-8-name" class="er entityLabel">created_at</text><rect height="23" width="24.166666984558105" y="185" x="130.5" class="er attributeBoxEven"></rect><text transform="translate(135.5,196.5)" style="dominant-baseline: middle; font-size: 10.2px;" y="0" x="0" id="text-entity-USERS-1e82e395-936c-57a7-8ba9-b08f03574b93-attr-8-key" class="er entityLabel"></text><rect height="23" width="49.099998474121094" y="208" x="0" class="er attributeBoxOdd"></rect><text transform="translate(5,219.5)" style="dominant-baseline: middle; font-size: 10.2px;" y="0" x="0" id="text-entity-USERS-1e82e395-936c-57a7-8ba9-b08f03574b93-attr-9-type" class="er entityLabel">datetime</text><rect height="23" width="81.4000015258789" y="208" x="49.099998474121094" class="er attributeBoxOdd"></rect><text transform="translate(54.099998474121094,219.5)" style="dominant-baseline: middle; font-size: 10.2px;" y="0" x="0" id="text-entity-USERS-1e82e395-936c-57a7-8ba9-b08f03574b93-attr-9-name" class="er entityLabel">updated_at</text><rect height="23" width="24.166666984558105" y="208" x="130.5" class="er attributeBoxOdd"></rect><text transform="translate(135.5,219.5)" style="dominant-baseline: middle; font-size: 10.2px;" y="0" x="0" id="text-entity-USERS-1e82e395-936c-57a7-8ba9-b08f03574b93-attr-9-key" class="er entityLabel"></text></g><g transform="translate(115.89167022705078,351 )" id="entity-FACILITATORS-407a6748-66b0-5b18-97a9-163753580885"><rect height="139" width="149" y="0" x="0" class="er entityBox"></rect><text transform="translate(74.5,12)" style="dominant-baseline: middle; text-anchor: middle; font-size: 12px;" y="0" x="0" id="text-entity-FACILITATORS-407a6748-66b0-5b18-97a9-163753580885" class="er entityLabel">FACILITATORS</text><rect height="23" width="34.933332443237305" y="24" x="0" class="er attributeBoxOdd"></rect><text transform="translate(5,35.5)" style="dominant-baseline: middle; font-size: 10.2px;" y="0" x="0" id="text-entity-FACILITATORS-407a6748-66b0-5b18-97a9-163753580885-attr-1-type" class="er entityLabel">int</text><rect height="23" width="90.46666717529297" y="24" x="34.933332443237305" class="er attributeBoxOdd"></rect><text transform="translate(39.933332443237305,35.5)" style="dominant-baseline: middle; font-size: 10.2px;" y="0" x="0" id="text-entity-FACILITATORS-407a6748-66b0-5b18-97a9-163753580885-attr-1-name" class="er entityLabel">id</text><rect height="23" width="23.600000381469727" y="24" x="125.39999961853027" class="er attributeBoxOdd"></rect><text transform="translate(130.39999961853027,35.5)" style="dominant-baseline: middle; font-size: 10.2px;" y="0" x="0" id="text-entity-FACILITATORS-407a6748-66b0-5b18-97a9-163753580885-attr-1-key" class="er entityLabel">PK</text><rect height="23" width="34.933332443237305" y="47" x="0" class="er attributeBoxEven"></rect><text transform="translate(5,58.5)" style="dominant-baseline: middle; font-size: 10.2px;" y="0" x="0" id="text-entity-FACILITATORS-407a6748-66b0-5b18-97a9-163753580885-attr-2-type" class="er entityLabel">int</text><rect height="23" width="90.46666717529297" y="47" x="34.933332443237305" class="er attributeBoxEven"></rect><text transform="translate(39.933332443237305,58.5)" style="dominant-baseline: middle; font-size: 10.2px;" y="0" x="0" id="text-entity-FACILITATORS-407a6748-66b0-5b18-97a9-163753580885-attr-2-name" class="er entityLabel">user</text><rect height="23" width="23.600000381469727" y="47" x="125.39999961853027" class="er attributeBoxEven"></rect><text transform="translate(130.39999961853027,58.5)" style="dominant-baseline: middle; font-size: 10.2px;" y="0" x="0" id="text-entity-FACILITATORS-407a6748-66b0-5b18-97a9-163753580885-attr-2-key" class="er entityLabel">FK</text><rect height="23" width="34.933332443237305" y="70" x="0" class="er attributeBoxOdd"></rect><text transform="translate(5,81.5)" style="dominant-baseline: middle; font-size: 10.2px;" y="0" x="0" id="text-entity-FACILITATORS-407a6748-66b0-5b18-97a9-163753580885-attr-3-type" class="er entityLabel">text</text><rect height="23" width="90.46666717529297" y="70" x="34.933332443237305" class="er attributeBoxOdd"></rect><text transform="translate(39.933332443237305,81.5)" style="dominant-baseline: middle; font-size: 10.2px;" y="0" x="0" id="text-entity-FACILITATORS-407a6748-66b0-5b18-97a9-163753580885-attr-3-name" class="er entityLabel">bio</text><rect height="23" width="23.600000381469727" y="70" x="125.39999961853027" class="er attributeBoxOdd"></rect><text transform="translate(130.39999961853027,81.5)" style="dominant-baseline: middle; font-size: 10.2px;" y="0" x="0" id="text-entity-FACILITATORS-407a6748-66b0-5b18-97a9-163753580885-attr-3-key" class="er entityLabel"></text><rect height="23" width="34.933332443237305" y="93" x="0" class="er attributeBoxEven"></rect><text transform="translate(5,104.5)" style="dominant-baseline: middle; font-size: 10.2px;" y="0" x="0" id="text-entity-FACILITATORS-407a6748-66b0-5b18-97a9-163753580885-attr-4-type" class="er entityLabel">string</text><rect height="23" width="90.46666717529297" y="93" x="34.933332443237305" class="er attributeBoxEven"></rect><text transform="translate(39.933332443237305,104.5)" style="dominant-baseline: middle; font-size: 10.2px;" y="0" x="0" id="text-entity-FACILITATORS-407a6748-66b0-5b18-97a9-163753580885-attr-4-name" class="er entityLabel">specialization</text><rect height="23" width="23.600000381469727" y="93" x="125.39999961853027" class="er attributeBoxEven"></rect><text transform="translate(130.39999961853027,104.5)" style="dominant-baseline: middle; font-size: 10.2px;" y="0" x="0" id="text-entity-FACILITATORS-407a6748-66b0-5b18-97a9-163753580885-attr-4-key" class="er entityLabel"></text><rect height="23" width="34.933332443237305" y="116" x="0" class="er attributeBoxOdd"></rect><text transform="translate(5,127.5)" style="dominant-baseline: middle; font-size: 10.2px;" y="0" x="0" id="text-entity-FACILITATORS-407a6748-66b0-5b18-97a9-163753580885-attr-5-type" class="er entityLabel">int</text><rect height="23" width="90.46666717529297" y="116" x="34.933332443237305" class="er attributeBoxOdd"></rect><text transform="translate(39.933332443237305,127.5)" style="dominant-baseline: middle; font-size: 10.2px;" y="0" x="0" id="text-entity-FACILITATORS-407a6748-66b0-5b18-97a9-163753580885-attr-5-name" class="er entityLabel">experience_years</text><rect height="23" width="23.600000381469727" y="116" x="125.39999961853027" class="er attributeBoxOdd"></rect><text transform="translate(130.39999961853027,127.5)" style="dominant-baseline: middle; font-size: 10.2px;" y="0" x="0" id="text-entity-FACILITATORS-407a6748-66b0-5b18-97a9-163753580885-attr-5-key" class="er entityLabel"></text></g><g transform="translate(104.2750015258789,590 )" id="entity-EVENTS-f8622644-72cf-59af-9237-096f72dd11ba"><rect height="392" width="172.23333168029785" y="0" x="0" class="er entityBox"></rect><text transform="translate(86.11666584014893,12)" style="dominant-baseline: middle; text-anchor: middle; font-size: 12px;" y="0" x="0" id="text-entity-EVENTS-f8622644-72cf-59af-9237-096f72dd11ba" class="er entityLabel">EVENTS</text><rect height="23" width="49.099998474121094" y="24" x="0" class="er attributeBoxOdd"></rect><text transform="translate(5,35.5)" style="dominant-baseline: middle; font-size: 10.2px;" y="0" x="0" id="text-entity-EVENTS-f8622644-72cf-59af-9237-096f72dd11ba-attr-1-type" class="er entityLabel">int</text><rect height="23" width="99.53333282470703" y="24" x="49.099998474121094" class="er attributeBoxOdd"></rect><text transform="translate(54.099998474121094,35.5)" style="dominant-baseline: middle; font-size: 10.2px;" y="0" x="0" id="text-entity-EVENTS-f8622644-72cf-59af-9237-096f72dd11ba-attr-1-name" class="er entityLabel">id</text><rect height="23" width="23.600000381469727" y="24" x="148.63333129882812" class="er attributeBoxOdd"></rect><text transform="translate(153.63333129882812,35.5)" style="dominant-baseline: middle; font-size: 10.2px;" y="0" x="0" id="text-entity-EVENTS-f8622644-72cf-59af-9237-096f72dd11ba-attr-1-key" class="er entityLabel">PK</text><rect height="23" width="49.099998474121094" y="47" x="0" class="er attributeBoxEven"></rect><text transform="translate(5,58.5)" style="dominant-baseline: middle; font-size: 10.2px;" y="0" x="0" id="text-entity-EVENTS-f8622644-72cf-59af-9237-096f72dd11ba-attr-2-type" class="er entityLabel">string</text><rect height="23" width="99.53333282470703" y="47" x="49.099998474121094" class="er attributeBoxEven"></rect><text transform="translate(54.099998474121094,58.5)" style="dominant-baseline: middle; font-size: 10.2px;" y="0" x="0" id="text-entity-EVENTS-f8622644-72cf-59af-9237-096f72dd11ba-attr-2-name" class="er entityLabel">title</text><rect height="23" width="23.600000381469727" y="47" x="148.63333129882812" class="er attributeBoxEven"></rect><text transform="translate(153.63333129882812,58.5)" style="dominant-baseline: middle; font-size: 10.2px;" y="0" x="0" id="text-entity-EVENTS-f8622644-72cf-59af-9237-096f72dd11ba-attr-2-key" class="er entityLabel"></text><rect height="23" width="49.099998474121094" y="70" x="0" class="er attributeBoxOdd"></rect><text transform="translate(5,81.5)" style="dominant-baseline: middle; font-size: 10.2px;" y="0" x="0" id="text-entity-EVENTS-f8622644-72cf-59af-9237-096f72dd11ba-attr-3-type" class="er entityLabel">text</text><rect height="23" width="99.53333282470703" y="70" x="49.099998474121094" class="er attributeBoxOdd"></rect><text transform="translate(54.099998474121094,81.5)" style="dominant-baseline: middle; font-size: 10.2px;" y="0" x="0" id="text-entity-EVENTS-f8622644-72cf-59af-9237-096f72dd11ba-attr-3-name" class="er entityLabel">description</text><rect height="23" width="23.600000381469727" y="70" x="148.63333129882812" class="er attributeBoxOdd"></rect><text transform="translate(153.63333129882812,81.5)" style="dominant-baseline: middle; font-size: 10.2px;" y="0" x="0" id="text-entity-EVENTS-f8622644-72cf-59af-9237-096f72dd11ba-attr-3-key" class="er entityLabel"></text><rect height="23" width="49.099998474121094" y="93" x="0" class="er attributeBoxEven"></rect><text transform="translate(5,104.5)" style="dominant-baseline: middle; font-size: 10.2px;" y="0" x="0" id="text-entity-EVENTS-f8622644-72cf-59af-9237-096f72dd11ba-attr-4-type" class="er entityLabel">int</text><rect height="23" width="99.53333282470703" y="93" x="49.099998474121094" class="er attributeBoxEven"></rect><text transform="translate(54.099998474121094,104.5)" style="dominant-baseline: middle; font-size: 10.2px;" y="0" x="0" id="text-entity-EVENTS-f8622644-72cf-59af-9237-096f72dd11ba-attr-4-name" class="er entityLabel">event_type</text><rect height="23" width="23.600000381469727" y="93" x="148.63333129882812" class="er attributeBoxEven"></rect><text transform="translate(153.63333129882812,104.5)" style="dominant-baseline: middle; font-size: 10.2px;" y="0" x="0" id="text-entity-EVENTS-f8622644-72cf-59af-9237-096f72dd11ba-attr-4-key" class="er entityLabel"></text><rect height="23" width="49.099998474121094" y="116" x="0" class="er attributeBoxOdd"></rect><text transform="translate(5,127.5)" style="dominant-baseline: middle; font-size: 10.2px;" y="0" x="0" id="text-entity-EVENTS-f8622644-72cf-59af-9237-096f72dd11ba-attr-5-type" class="er entityLabel">int</text><rect height="23" width="99.53333282470703" y="116" x="49.099998474121094" class="er attributeBoxOdd"></rect><text transform="translate(54.099998474121094,127.5)" style="dominant-baseline: middle; font-size: 10.2px;" y="0" x="0" id="text-entity-EVENTS-f8622644-72cf-59af-9237-096f72dd11ba-attr-5-name" class="er entityLabel">facilitator_id</text><rect height="23" width="23.600000381469727" y="116" x="148.63333129882812" class="er attributeBoxOdd"></rect><text transform="translate(153.63333129882812,127.5)" style="dominant-baseline: middle; font-size: 10.2px;" y="0" x="0" id="text-entity-EVENTS-f8622644-72cf-59af-9237-096f72dd11ba-attr-5-key" class="er entityLabel">FK</text><rect height="23" width="49.099998474121094" y="139" x="0" class="er attributeBoxEven"></rect><text transform="translate(5,150.5)" style="dominant-baseline: middle; font-size: 10.2px;" y="0" x="0" id="text-entity-EVENTS-f8622644-72cf-59af-9237-096f72dd11ba-attr-6-type" class="er entityLabel">datetime</text><rect height="23" width="99.53333282470703" y="139" x="49.099998474121094" class="er attributeBoxEven"></rect><text transform="translate(54.099998474121094,150.5)" style="dominant-baseline: middle; font-size: 10.2px;" y="0" x="0" id="text-entity-EVENTS-f8622644-72cf-59af-9237-096f72dd11ba-attr-6-name" class="er entityLabel">start_datetime</text><rect height="23" width="23.600000381469727" y="139" x="148.63333129882812" class="er attributeBoxEven"></rect><text transform="translate(153.63333129882812,150.5)" style="dominant-baseline: middle; font-size: 10.2px;" y="0" x="0" id="text-entity-EVENTS-f8622644-72cf-59af-9237-096f72dd11ba-attr-6-key" class="er entityLabel"></text><rect height="23" width="49.099998474121094" y="162" x="0" class="er attributeBoxOdd"></rect><text transform="translate(5,173.5)" style="dominant-baseline: middle; font-size: 10.2px;" y="0" x="0" id="text-entity-EVENTS-f8622644-72cf-59af-9237-096f72dd11ba-attr-7-type" class="er entityLabel">datetime</text><rect height="23" width="99.53333282470703" y="162" x="49.099998474121094" class="er attributeBoxOdd"></rect><text transform="translate(54.099998474121094,173.5)" style="dominant-baseline: middle; font-size: 10.2px;" y="0" x="0" id="text-entity-EVENTS-f8622644-72cf-59af-9237-096f72dd11ba-attr-7-name" class="er entityLabel">end_datetime</text><rect height="23" width="23.600000381469727" y="162" x="148.63333129882812" class="er attributeBoxOdd"></rect><text transform="translate(153.63333129882812,173.5)" style="dominant-baseline: middle; font-size: 10.2px;" y="0" x="0" id="text-entity-EVENTS-f8622644-72cf-59af-9237-096f72dd11ba-attr-7-key" class="er entityLabel"></text><rect height="23" width="49.099998474121094" y="185" x="0" class="er attributeBoxEven"></rect><text transform="translate(5,196.5)" style="dominant-baseline: middle; font-size: 10.2px;" y="0" x="0" id="text-entity-EVENTS-f8622644-72cf-59af-9237-096f72dd11ba-attr-8-type" class="er entityLabel">string</text><rect height="23" width="99.53333282470703" y="185" x="49.099998474121094" class="er attributeBoxEven"></rect><text transform="translate(54.099998474121094,196.5)" style="dominant-baseline: middle; font-size: 10.2px;" y="0" x="0" id="text-entity-EVENTS-f8622644-72cf-59af-9237-096f72dd11ba-attr-8-name" class="er entityLabel">location</text><rect height="23" width="23.600000381469727" y="185" x="148.63333129882812" class="er attributeBoxEven"></rect><text transform="translate(153.63333129882812,196.5)" style="dominant-baseline: middle; font-size: 10.2px;" y="0" x="0" id="text-entity-EVENTS-f8622644-72cf-59af-9237-096f72dd11ba-attr-8-key" class="er entityLabel"></text><rect height="23" width="49.099998474121094" y="208" x="0" class="er attributeBoxOdd"></rect><text transform="translate(5,219.5)" style="dominant-baseline: middle; font-size: 10.2px;" y="0" x="0" id="text-entity-EVENTS-f8622644-72cf-59af-9237-096f72dd11ba-attr-9-type" class="er entityLabel">string</text><rect height="23" width="99.53333282470703" y="208" x="49.099998474121094" class="er attributeBoxOdd"></rect><text transform="translate(54.099998474121094,219.5)" style="dominant-baseline: middle; font-size: 10.2px;" y="0" x="0" id="text-entity-EVENTS-f8622644-72cf-59af-9237-096f72dd11ba-attr-9-name" class="er entityLabel">virtual_link</text><rect height="23" width="23.600000381469727" y="208" x="148.63333129882812" class="er attributeBoxOdd"></rect><text transform="translate(153.63333129882812,219.5)" style="dominant-baseline: middle; font-size: 10.2px;" y="0" x="0" id="text-entity-EVENTS-f8622644-72cf-59af-9237-096f72dd11ba-attr-9-key" class="er entityLabel"></text><rect height="23" width="49.099998474121094" y="231" x="0" class="er attributeBoxEven"></rect><text transform="translate(5,242.5)" style="dominant-baseline: middle; font-size: 10.2px;" y="0" x="0" id="text-entity-EVENTS-f8622644-72cf-59af-9237-096f72dd11ba-attr-10-type" class="er entityLabel">int</text><rect height="23" width="99.53333282470703" y="231" x="49.099998474121094" class="er attributeBoxEven"></rect><text transform="translate(54.099998474121094,242.5)" style="dominant-baseline: middle; font-size: 10.2px;" y="0" x="0" id="text-entity-EVENTS-f8622644-72cf-59af-9237-096f72dd11ba-attr-10-name" class="er entityLabel">max_participants</text><rect height="23" width="23.600000381469727" y="231" x="148.63333129882812" class="er attributeBoxEven"></rect><text transform="translate(153.63333129882812,242.5)" style="dominant-baseline: middle; font-size: 10.2px;" y="0" x="0" id="text-entity-EVENTS-f8622644-72cf-59af-9237-096f72dd11ba-attr-10-key" class="er entityLabel"></text><rect height="23" width="49.099998474121094" y="254" x="0" class="er attributeBoxOdd"></rect><text transform="translate(5,265.5)" style="dominant-baseline: middle; font-size: 10.2px;" y="0" x="0" id="text-entity-EVENTS-f8622644-72cf-59af-9237-096f72dd11ba-attr-11-type" class="er entityLabel">int</text><rect height="23" width="99.53333282470703" y="254" x="49.099998474121094" class="er attributeBoxOdd"></rect><text transform="translate(54.099998474121094,265.5)" style="dominant-baseline: middle; font-size: 10.2px;" y="0" x="0" id="text-entity-EVENTS-f8622644-72cf-59af-9237-096f72dd11ba-attr-11-name" class="er entityLabel">current_participants</text><rect height="23" width="23.600000381469727" y="254" x="148.63333129882812" class="er attributeBoxOdd"></rect><text transform="translate(153.63333129882812,265.5)" style="dominant-baseline: middle; font-size: 10.2px;" y="0" x="0" id="text-entity-EVENTS-f8622644-72cf-59af-9237-096f72dd11ba-attr-11-key" class="er entityLabel"></text><rect height="23" width="49.099998474121094" y="277" x="0" class="er attributeBoxEven"></rect><text transform="translate(5,288.5)" style="dominant-baseline: middle; font-size: 10.2px;" y="0" x="0" id="text-entity-EVENTS-f8622644-72cf-59af-9237-096f72dd11ba-attr-12-type" class="er entityLabel">decimal</text><rect height="23" width="99.53333282470703" y="277" x="49.099998474121094" class="er attributeBoxEven"></rect><text transform="translate(54.099998474121094,288.5)" style="dominant-baseline: middle; font-size: 10.2px;" y="0" x="0" id="text-entity-EVENTS-f8622644-72cf-59af-9237-096f72dd11ba-attr-12-name" class="er entityLabel">price</text><rect height="23" width="23.600000381469727" y="277" x="148.63333129882812" class="er attributeBoxEven"></rect><text transform="translate(153.63333129882812,288.5)" style="dominant-baseline: middle; font-size: 10.2px;" y="0" x="0" id="text-entity-EVENTS-f8622644-72cf-59af-9237-096f72dd11ba-attr-12-key" class="er entityLabel"></text><rect height="23" width="49.099998474121094" y="300" x="0" class="er attributeBoxOdd"></rect><text transform="translate(5,311.5)" style="dominant-baseline: middle; font-size: 10.2px;" y="0" x="0" id="text-entity-EVENTS-f8622644-72cf-59af-9237-096f72dd11ba-attr-13-type" class="er entityLabel">int</text><rect height="23" width="99.53333282470703" y="300" x="49.099998474121094" class="er attributeBoxOdd"></rect><text transform="translate(54.099998474121094,311.5)" style="dominant-baseline: middle; font-size: 10.2px;" y="0" x="0" id="text-entity-EVENTS-f8622644-72cf-59af-9237-096f72dd11ba-attr-13-name" class="er entityLabel">status</text><rect height="23" width="23.600000381469727" y="300" x="148.63333129882812" class="er attributeBoxOdd"></rect><text transform="translate(153.63333129882812,311.5)" style="dominant-baseline: middle; font-size: 10.2px;" y="0" x="0" id="text-entity-EVENTS-f8622644-72cf-59af-9237-096f72dd11ba-attr-13-key" class="er entityLabel"></text><rect height="23" width="49.099998474121094" y="323" x="0" class="er attributeBoxEven"></rect><text transform="translate(5,334.5)" style="dominant-baseline: middle; font-size: 10.2px;" y="0" x="0" id="text-entity-EVENTS-f8622644-72cf-59af-9237-096f72dd11ba-attr-14-type" class="er entityLabel">text</text><rect height="23" width="99.53333282470703" y="323" x="49.099998474121094" class="er attributeBoxEven"></rect><text transform="translate(54.099998474121094,334.5)" style="dominant-baseline: middle; font-size: 10.2px;" y="0" x="0" id="text-entity-EVENTS-f8622644-72cf-59af-9237-096f72dd11ba-attr-14-name" class="er entityLabel">requirements</text><rect height="23" width="23.600000381469727" y="323" x="148.63333129882812" class="er attributeBoxEven"></rect><text transform="translate(153.63333129882812,334.5)" style="dominant-baseline: middle; font-size: 10.2px;" y="0" x="0" id="text-entity-EVENTS-f8622644-72cf-59af-9237-096f72dd11ba-attr-14-key" class="er entityLabel"></text><rect height="23" width="49.099998474121094" y="346" x="0" class="er attributeBoxOdd"></rect><text transform="translate(5,357.5)" style="dominant-baseline: middle; font-size: 10.2px;" y="0" x="0" id="text-entity-EVENTS-f8622644-72cf-59af-9237-096f72dd11ba-attr-15-type" class="er entityLabel">datetime</text><rect height="23" width="99.53333282470703" y="346" x="49.099998474121094" class="er attributeBoxOdd"></rect><text transform="translate(54.099998474121094,357.5)" style="dominant-baseline: middle; font-size: 10.2px;" y="0" x="0" id="text-entity-EVENTS-f8622644-72cf-59af-9237-096f72dd11ba-attr-15-name" class="er entityLabel">created_at</text><rect height="23" width="23.600000381469727" y="346" x="148.63333129882812" class="er attributeBoxOdd"></rect><text transform="translate(153.63333129882812,357.5)" style="dominant-baseline: middle; font-size: 10.2px;" y="0" x="0" id="text-entity-EVENTS-f8622644-72cf-59af-9237-096f72dd11ba-attr-15-key" class="er entityLabel"></text><rect height="23" width="49.099998474121094" y="369" x="0" class="er attributeBoxEven"></rect><text transform="translate(5,380.5)" style="dominant-baseline: middle; font-size: 10.2px;" y="0" x="0" id="text-entity-EVENTS-f8622644-72cf-59af-9237-096f72dd11ba-attr-16-type" class="er entityLabel">datetime</text><rect height="23" width="99.53333282470703" y="369" x="49.099998474121094" class="er attributeBoxEven"></rect><text transform="translate(54.099998474121094,380.5)" style="dominant-baseline: middle; font-size: 10.2px;" y="0" x="0" id="text-entity-EVENTS-f8622644-72cf-59af-9237-096f72dd11ba-attr-16-name" class="er entityLabel">updated_at</text><rect height="23" width="23.600000381469727" y="369" x="148.63333129882812" class="er attributeBoxEven"></rect><text transform="translate(153.63333129882812,380.5)" style="dominant-baseline: middle; font-size: 10.2px;" y="0" x="0" id="text-entity-EVENTS-f8622644-72cf-59af-9237-096f72dd11ba-attr-16-key" class="er entityLabel"></text></g><g transform="translate(20,1082 )" id="entity-BOOKINGS-125c805b-eb02-5c57-8ddd-60baf0abcfbf"><rect height="254" width="154.6666660308838" y="0" x="0" class="er entityBox"></rect><text transform="translate(77.3333330154419,12)" style="dominant-baseline: middle; text-anchor: middle; font-size: 12px;" y="0" x="0" id="text-entity-BOOKINGS-125c805b-eb02-5c57-8ddd-60baf0abcfbf" class="er entityLabel">BOOKINGS</text><rect height="23" width="49.099998474121094" y="24" x="0" class="er attributeBoxOdd"></rect><text transform="translate(5,35.5)" style="dominant-baseline: middle; font-size: 10.2px;" y="0" x="0" id="text-entity-BOOKINGS-125c805b-eb02-5c57-8ddd-60baf0abcfbf-attr-1-type" class="er entityLabel">int</text><rect height="23" width="81.96666717529297" y="24" x="49.099998474121094" class="er attributeBoxOdd"></rect><text transform="translate(54.099998474121094,35.5)" style="dominant-baseline: middle; font-size: 10.2px;" y="0" x="0" id="text-entity-BOOKINGS-125c805b-eb02-5c57-8ddd-60baf0abcfbf-attr-1-name" class="er entityLabel">id</text><rect height="23" width="23.600000381469727" y="24" x="131.06666564941406" class="er attributeBoxOdd"></rect><text transform="translate(136.06666564941406,35.5)" style="dominant-baseline: middle; font-size: 10.2px;" y="0" x="0" id="text-entity-BOOKINGS-125c805b-eb02-5c57-8ddd-60baf0abcfbf-attr-1-key" class="er entityLabel">PK</text><rect height="23" width="49.099998474121094" y="47" x="0" class="er attributeBoxEven"></rect><text transform="translate(5,58.5)" style="dominant-baseline: middle; font-size: 10.2px;" y="0" x="0" id="text-entity-BOOKINGS-125c805b-eb02-5c57-8ddd-60baf0abcfbf-attr-2-type" class="er entityLabel">int</text><rect height="23" width="81.96666717529297" y="47" x="49.099998474121094" class="er attributeBoxEven"></rect><text transform="translate(54.099998474121094,58.5)" style="dominant-baseline: middle; font-size: 10.2px;" y="0" x="0" id="text-entity-BOOKINGS-125c805b-eb02-5c57-8ddd-60baf0abcfbf-attr-2-name" class="er entityLabel">user_id</text><rect height="23" width="23.600000381469727" y="47" x="131.06666564941406" class="er attributeBoxEven"></rect><text transform="translate(136.06666564941406,58.5)" style="dominant-baseline: middle; font-size: 10.2px;" y="0" x="0" id="text-entity-BOOKINGS-125c805b-eb02-5c57-8ddd-60baf0abcfbf-attr-2-key" class="er entityLabel">FK</text><rect height="23" width="49.099998474121094" y="70" x="0" class="er attributeBoxOdd"></rect><text transform="translate(5,81.5)" style="dominant-baseline: middle; font-size: 10.2px;" y="0" x="0" id="text-entity-BOOKINGS-125c805b-eb02-5c57-8ddd-60baf0abcfbf-attr-3-type" class="er entityLabel">int</text><rect height="23" width="81.96666717529297" y="70" x="49.099998474121094" class="er attributeBoxOdd"></rect><text transform="translate(54.099998474121094,81.5)" style="dominant-baseline: middle; font-size: 10.2px;" y="0" x="0" id="text-entity-BOOKINGS-125c805b-eb02-5c57-8ddd-60baf0abcfbf-attr-3-name" class="er entityLabel">event_id</text><rect height="23" width="23.600000381469727" y="70" x="131.06666564941406" class="er attributeBoxOdd"></rect><text transform="translate(136.06666564941406,81.5)" style="dominant-baseline: middle; font-size: 10.2px;" y="0" x="0" id="text-entity-BOOKINGS-125c805b-eb02-5c57-8ddd-60baf0abcfbf-attr-3-key" class="er entityLabel">FK</text><rect height="23" width="49.099998474121094" y="93" x="0" class="er attributeBoxEven"></rect><text transform="translate(5,104.5)" style="dominant-baseline: middle; font-size: 10.2px;" y="0" x="0" id="text-entity-BOOKINGS-125c805b-eb02-5c57-8ddd-60baf0abcfbf-attr-4-type" class="er entityLabel">datetime</text><rect height="23" width="81.96666717529297" y="93" x="49.099998474121094" class="er attributeBoxEven"></rect><text transform="translate(54.099998474121094,104.5)" style="dominant-baseline: middle; font-size: 10.2px;" y="0" x="0" id="text-entity-BOOKINGS-125c805b-eb02-5c57-8ddd-60baf0abcfbf-attr-4-name" class="er entityLabel">booking_date</text><rect height="23" width="23.600000381469727" y="93" x="131.06666564941406" class="er attributeBoxEven"></rect><text transform="translate(136.06666564941406,104.5)" style="dominant-baseline: middle; font-size: 10.2px;" y="0" x="0" id="text-entity-BOOKINGS-125c805b-eb02-5c57-8ddd-60baf0abcfbf-attr-4-key" class="er entityLabel"></text><rect height="23" width="49.099998474121094" y="116" x="0" class="er attributeBoxOdd"></rect><text transform="translate(5,127.5)" style="dominant-baseline: middle; font-size: 10.2px;" y="0" x="0" id="text-entity-BOOKINGS-125c805b-eb02-5c57-8ddd-60baf0abcfbf-attr-5-type" class="er entityLabel">int</text><rect height="23" width="81.96666717529297" y="116" x="49.099998474121094" class="er attributeBoxOdd"></rect><text transform="translate(54.099998474121094,127.5)" style="dominant-baseline: middle; font-size: 10.2px;" y="0" x="0" id="text-entity-BOOKINGS-125c805b-eb02-5c57-8ddd-60baf0abcfbf-attr-5-name" class="er entityLabel">status</text><rect height="23" width="23.600000381469727" y="116" x="131.06666564941406" class="er attributeBoxOdd"></rect><text transform="translate(136.06666564941406,127.5)" style="dominant-baseline: middle; font-size: 10.2px;" y="0" x="0" id="text-entity-BOOKINGS-125c805b-eb02-5c57-8ddd-60baf0abcfbf-attr-5-key" class="er entityLabel"></text><rect height="23" width="49.099998474121094" y="139" x="0" class="er attributeBoxEven"></rect><text transform="translate(5,150.5)" style="dominant-baseline: middle; font-size: 10.2px;" y="0" x="0" id="text-entity-BOOKINGS-125c805b-eb02-5c57-8ddd-60baf0abcfbf-attr-6-type" class="er entityLabel">text</text><rect height="23" width="81.96666717529297" y="139" x="49.099998474121094" class="er attributeBoxEven"></rect><text transform="translate(54.099998474121094,150.5)" style="dominant-baseline: middle; font-size: 10.2px;" y="0" x="0" id="text-entity-BOOKINGS-125c805b-eb02-5c57-8ddd-60baf0abcfbf-attr-6-name" class="er entityLabel">notes</text><rect height="23" width="23.600000381469727" y="139" x="131.06666564941406" class="er attributeBoxEven"></rect><text transform="translate(136.06666564941406,150.5)" style="dominant-baseline: middle; font-size: 10.2px;" y="0" x="0" id="text-entity-BOOKINGS-125c805b-eb02-5c57-8ddd-60baf0abcfbf-attr-6-key" class="er entityLabel"></text><rect height="23" width="49.099998474121094" y="162" x="0" class="er attributeBoxOdd"></rect><text transform="translate(5,173.5)" style="dominant-baseline: middle; font-size: 10.2px;" y="0" x="0" id="text-entity-BOOKINGS-125c805b-eb02-5c57-8ddd-60baf0abcfbf-attr-7-type" class="er entityLabel">string</text><rect height="23" width="81.96666717529297" y="162" x="49.099998474121094" class="er attributeBoxOdd"></rect><text transform="translate(54.099998474121094,173.5)" style="dominant-baseline: middle; font-size: 10.2px;" y="0" x="0" id="text-entity-BOOKINGS-125c805b-eb02-5c57-8ddd-60baf0abcfbf-attr-7-name" class="er entityLabel">payment_status</text><rect height="23" width="23.600000381469727" y="162" x="131.06666564941406" class="er attributeBoxOdd"></rect><text transform="translate(136.06666564941406,173.5)" style="dominant-baseline: middle; font-size: 10.2px;" y="0" x="0" id="text-entity-BOOKINGS-125c805b-eb02-5c57-8ddd-60baf0abcfbf-attr-7-key" class="er entityLabel"></text><rect height="23" width="49.099998474121094" y="185" x="0" class="er attributeBoxEven"></rect><text transform="translate(5,196.5)" style="dominant-baseline: middle; font-size: 10.2px;" y="0" x="0" id="text-entity-BOOKINGS-125c805b-eb02-5c57-8ddd-60baf0abcfbf-attr-8-type" class="er entityLabel">string</text><rect height="23" width="81.96666717529297" y="185" x="49.099998474121094" class="er attributeBoxEven"></rect><text transform="translate(54.099998474121094,196.5)" style="dominant-baseline: middle; font-size: 10.2px;" y="0" x="0" id="text-entity-BOOKINGS-125c805b-eb02-5c57-8ddd-60baf0abcfbf-attr-8-name" class="er entityLabel">payment_id</text><rect height="23" width="23.600000381469727" y="185" x="131.06666564941406" class="er attributeBoxEven"></rect><text transform="translate(136.06666564941406,196.5)" style="dominant-baseline: middle; font-size: 10.2px;" y="0" x="0" id="text-entity-BOOKINGS-125c805b-eb02-5c57-8ddd-60baf0abcfbf-attr-8-key" class="er entityLabel"></text><rect height="23" width="49.099998474121094" y="208" x="0" class="er attributeBoxOdd"></rect><text transform="translate(5,219.5)" style="dominant-baseline: middle; font-size: 10.2px;" y="0" x="0" id="text-entity-BOOKINGS-125c805b-eb02-5c57-8ddd-60baf0abcfbf-attr-9-type" class="er entityLabel">datetime</text><rect height="23" width="81.96666717529297" y="208" x="49.099998474121094" class="er attributeBoxOdd"></rect><text transform="translate(54.099998474121094,219.5)" style="dominant-baseline: middle; font-size: 10.2px;" y="0" x="0" id="text-entity-BOOKINGS-125c805b-eb02-5c57-8ddd-60baf0abcfbf-attr-9-name" class="er entityLabel">created_at</text><rect height="23" width="23.600000381469727" y="208" x="131.06666564941406" class="er attributeBoxOdd"></rect><text transform="translate(136.06666564941406,219.5)" style="dominant-baseline: middle; font-size: 10.2px;" y="0" x="0" id="text-entity-BOOKINGS-125c805b-eb02-5c57-8ddd-60baf0abcfbf-attr-9-key" class="er entityLabel"></text><rect height="23" width="49.099998474121094" y="231" x="0" class="er attributeBoxEven"></rect><text transform="translate(5,242.5)" style="dominant-baseline: middle; font-size: 10.2px;" y="0" x="0" id="text-entity-BOOKINGS-125c805b-eb02-5c57-8ddd-60baf0abcfbf-attr-10-type" class="er entityLabel">datetime</text><rect height="23" width="81.96666717529297" y="231" x="49.099998474121094" class="er attributeBoxEven"></rect><text transform="translate(54.099998474121094,242.5)" style="dominant-baseline: middle; font-size: 10.2px;" y="0" x="0" id="text-entity-BOOKINGS-125c805b-eb02-5c57-8ddd-60baf0abcfbf-attr-10-name" class="er entityLabel">updated_at</text><rect height="23" width="23.600000381469727" y="231" x="131.06666564941406" class="er attributeBoxEven"></rect><text transform="translate(136.06666564941406,242.5)" style="dominant-baseline: middle; font-size: 10.2px;" y="0" x="0" id="text-entity-BOOKINGS-125c805b-eb02-5c57-8ddd-60baf0abcfbf-attr-10-key" class="er entityLabel"></text></g><rect height="14" width="36" y="291.6226501464844" x="167.0065155029297" class="er relationshipLabelBox"></rect><text style="text-anchor: middle; dominant-baseline: middle; font-size: 12px;" y="298.6226501464844" x="185.0065155029297" id="rel5" class="er relationshipLabel">can be</text><rect height="14" width="35.33333206176758" y="658.8851928710938" x="-13.391665935516357" class="er relationshipLabelBox"></rect><text style="text-anchor: middle; dominant-baseline: middle; font-size: 12px;" y="665.8851928710938" x="4.275000095367432" id="rel6" class="er relationshipLabel">makes</text><rect height="14" width="39.33333206176758" y="533" x="170.72533226013184" class="er relationshipLabelBox"></rect><text style="text-anchor: middle; dominant-baseline: middle; font-size: 12px;" y="540" x="190.39199829101562" id="rel7" class="er relationshipLabel">creates</text><rect height="14" width="44.66666793823242" y="1027.1044921875" x="163.1005802154541" class="er relationshipLabelBox"></rect><text style="text-anchor: middle; dominant-baseline: middle; font-size: 12px;" y="1034.1044921875" x="185.4339141845703" id="rel8" class="er relationshipLabel">receives</text></svg>